<svg aria-hidden="true" style="width:0;height:0;position:absolute;overflow:hidden" xmlns="http://www.w3.org/2000/svg"><defs><symbol id="icon-modalclsbtn" viewBox="0 0 30 32"><path d="m16.219 14.826 4.928-4.923a1.013 1.013 0 0 0-1.431-1.428l.001-.001-4.927 4.874-4.959-4.955a1.014 1.014 0 0 0-1.427 1.429l-.001-.002 4.948 5.006-4.847 4.782a1.013 1.013 0 1 0 1.429 1.43l.001-.001 4.836-4.832 4.806 4.801a1.014 1.014 0 0 0 1.427-1.429l.001.002-4.785-4.751z"/></symbol><symbol id="icon-modalinputalert" viewBox="0 0 32 32"><path fill="none" stroke="#ff705d" style="stroke:var(--color1,#ff705d)" stroke-linejoin="round" stroke-linecap="round" stroke-width="2.286" d="M16 11.429v6.857M16.002 26.286a1.143 1.143 0 1 0 0-2.287 1.143 1.143 0 0 0 0 2.287z"/><path fill="none" stroke="#ff705d" style="stroke:var(--color1,#ff705d)" stroke-linejoin="round" stroke-linecap="round" stroke-width="2.286" d="M18.036 2.4a2.286 2.286 0 0 0-4.068 0L1.397 27.543a2.281 2.281 0 0 0 .094 2.224 2.287 2.287 0 0 0 1.941 1.09h25.143a2.28 2.28 0 0 0 1.941-1.09 2.292 2.292 0 0 0 .093-2.224L18.038 2.4z"/></symbol></defs></svg>