<svg aria-hidden="true" style="width:0;height:0;position:absolute;overflow:hidden" xmlns="http://www.w3.org/2000/svg"><defs><symbol id="icon-slider-left-big" viewBox="0 0 18 32"><path d="m.48 16.965 14.862 14.16c.239.228.563.368.92.368s.681-.14.921-.369h-.001l.016-.016a1.223 1.223 0 0 0 0-1.779h-.001L3.202 15.996 17.197 2.669a1.223 1.223 0 0 0 0-1.779h-.001L17.18.874c-.239-.228-.563-.368-.92-.368s-.681.14-.921.369h.001L.478 15.035c-.255.243-.413.586-.413.965s.158.722.413.965h.001z"/></symbol><symbol id="icon-slider-right-big" viewBox="0 0 18 32"><path d="M17.653 15.035 2.791.875c-.239-.228-.563-.368-.92-.368S1.19.647.95.876h.001L.935.892A1.224 1.224 0 0 0 .934 2.67l13.995 13.333L.934 29.331a1.223 1.223 0 0 0 0 1.779h.001l.016.016c.239.228.563.368.92.368s.681-.14.921-.369h-.001l14.862-14.16c.255-.243.413-.586.413-.965s-.158-.722-.413-.965z"/></symbol></defs></svg>