<svg aria-hidden="true" style="width:0;height:0;position:absolute;overflow:hidden" xmlns="http://www.w3.org/2000/svg"><defs><symbol id="icon-slider-left-small" viewBox="0 0 17 32"><path fill="#fff" style="fill:var(--color1,#fff)" stroke-width="1.454" stroke="#000" d="M1.105 16.396a.55.55 0 0 1-.124-.177l-.001-.004a.533.533 0 0 1 .002-.434l-.001.004a.56.56 0 0 1 .125-.179L15.292 2.089a.544.544 0 0 1 .748-.004l.021.021a.446.446 0 0 1 .101.498l.001-.003a.45.45 0 0 1-.102.147h-.001L2.149 15.997 16.06 29.251a.446.446 0 0 1 .1.501l.001-.003a.45.45 0 0 1-.102.147l-.021.021a.545.545 0 0 1-.747-.005L1.105 16.396z"/></symbol><symbol id="icon-slider-right-big" viewBox="0 0 18 32"><path d="M17.653 15.035 2.791.875c-.239-.228-.563-.368-.92-.368S1.19.647.95.876h.001L.935.892A1.224 1.224 0 0 0 .934 2.67l13.995 13.333L.934 29.331a1.223 1.223 0 0 0 0 1.779h.001l.016.016c.239.228.563.368.92.368s.681-.14.921-.369h-.001l14.862-14.16c.255-.243.413-.586.413-.965s-.158-.722-.413-.965z"/></symbol></defs></svg>