<svg aria-hidden="true" style="width:0;height:0;position:absolute;overflow:hidden" xmlns="http://www.w3.org/2000/svg"><defs><symbol id="icon-slider-left-big" viewBox="0 0 37 32"><path fill="#fefefe" style="fill:var(--color1,#fefefe)" d="M2.667 21.333v-16A5.333 5.333 0 0 1 8 0h21.333a5.333 5.333 0 0 1 5.333 5.333v16a5.333 5.333 0 0 1-5.333 5.333H8a5.333 5.333 0 0 1-5.333-5.333z"/><path fill="#2c2c2c" style="fill:var(--color2,#2c2c2c)" d="m11.633 13.937 9.289 8.85a.832.832 0 0 0 1.15 0l.01-.01a.764.764 0 0 0 0-1.111l-8.747-8.333 8.747-8.33a.765.765 0 0 0 .001-1.112l-.01-.01a.832.832 0 0 0-1.15 0l-9.289 8.85a.832.832 0 0 0 0 1.206z"/></symbol><symbol id="icon-slider-left-small" viewBox="0 0 37 32"><path fill="#fff" style="fill:var(--color3,#fff)" d="M3.556 21.333V3.555A3.556 3.556 0 0 1 7.112-.001h23.111a3.556 3.556 0 0 1 3.556 3.556v17.778a3.556 3.556 0 0 1-3.556 3.556H7.112a3.556 3.556 0 0 1-3.556-3.556z"/><path fill="#fff" style="fill:var(--color3,#fff);stroke:var(--color2,#2c2c2c)" stroke="#2c2c2c" stroke-width=".889" d="M12.231 12.686a.341.341 0 0 1-.076-.108l-.001-.002a.331.331 0 0 1 .001-.266l-.001.002a.344.344 0 0 1 .076-.109l8.669-8.26a.333.333 0 0 1 .457-.003l.013.013a.27.27 0 0 1 .062.303l.001-.002a.273.273 0 0 1-.062.09h-.001l-8.501 8.097 8.501 8.1a.273.273 0 0 1 .062.306l.001-.002a.273.273 0 0 1-.062.09l-.013.013a.332.332 0 0 1-.457-.003l-8.669-8.26z"/></symbol><symbol id="icon-slider-right-big" viewBox="0 0 37 32"><path fill="#fefefe" style="fill:var(--color1,#fefefe)" d="M34.667 5.333v16a5.333 5.333 0 0 1-5.333 5.333H8.001a5.333 5.333 0 0 1-5.333-5.333v-16A5.333 5.333 0 0 1 8.001 0h21.333a5.333 5.333 0 0 1 5.333 5.333z"/><path fill="#2c2c2c" style="fill:var(--color2,#2c2c2c)" d="m25.7 12.73-9.289-8.85a.832.832 0 0 0-1.15 0l-.01.01a.764.764 0 0 0 0 1.111l8.747 8.333-8.747 8.331a.764.764 0 0 0 0 1.111l.01.01a.832.832 0 0 0 1.15 0l9.289-8.85a.832.832 0 0 0 0-1.206z"/></symbol><symbol id="icon-slider-right-small" viewBox="0 0 37 32"><path fill="#fff" style="fill:var(--color3,#fff)" d="M33.778 3.556v17.778a3.556 3.556 0 0 1-3.556 3.556H7.111a3.556 3.556 0 0 1-3.556-3.556V3.556A3.556 3.556 0 0 1 7.111 0h23.111a3.556 3.556 0 0 1 3.556 3.556z"/><path fill="#fff" style="fill:var(--color3,#fff);stroke:var(--color2,#2c2c2c)" stroke="#2c2c2c" stroke-width=".889" d="M25.102 12.203a.341.341 0 0 1 .076.108l.001.002a.331.331 0 0 1-.001.266l.001-.002a.344.344 0 0 1-.076.109l-8.669 8.26a.333.333 0 0 1-.457.003l-.013-.013a.273.273 0 0 1 0-.392h.001l8.501-8.097-8.501-8.1a.273.273 0 0 1-.062-.306l-.001.002a.273.273 0 0 1 .062-.09l.013-.013a.332.332 0 0 1 .457.003l8.669 8.26z"/></symbol></defs></svg>