<svg xmlns="http://www.w3.org/2000/svg" width="42" height="36" fill="none"><g fill="#fff" filter="url(#a)"><rect width="28" height="34" x="4" y="28" rx="4" transform="rotate(-90 4 28)"/><path stroke="#2C2C2C" d="M13.76 14.272a.375.375 0 0 1-.086-.124l-.46.197.46-.197a.375.375 0 0 1 0-.296l-.46-.197.46.197a.374.374 0 0 1 .086-.123l9.753-9.293a.375.375 0 0 1 .514-.003l.005.005.01.01a.307.307 0 0 1 .07.34.308.308 0 0 1-.07.101h-.001l-9.184 8.747-.38.362.38.362 9.184 8.75a.308.308 0 0 1 .07.342.308.308 0 0 1-.07.101l-.009.009-.005.005a.375.375 0 0 1-.514-.003l-9.753-9.292Z"/></g><defs><filter id="a" width="42" height="36" x="0" y="0" color-interpolation-filters="sRGB" filterUnits="userSpaceOnUse"><feFlood flood-opacity="0" result="BackgroundImageFix"/><feColorMatrix in="SourceAlpha" result="hardAlpha" values="0 0 0 0 0 0 0 0 0 0 0 0 0 0 0 0 0 0 127 0"/><feOffset dy="4"/><feGaussianBlur stdDeviation="2"/><feComposite in2="hardAlpha" operator="out"/><feColorMatrix values="0 0 0 0 0 0 0 0 0 0 0 0 0 0 0 0 0 0 0.06 0"/><feBlend in2="BackgroundImageFix" result="effect1_dropShadow_480_5185"/><feBlend in="SourceGraphic" in2="effect1_dropShadow_480_5185" result="shape"/></filter></defs></svg>