<svg aria-hidden="true" style="position: absolute; width: 0; height: 0; overflow: hidden;" version="1.1" xmlns="http://www.w3.org/2000/svg" xmlns:xlink="http://www.w3.org/1999/xlink">
<defs>
<symbol id="icon-slider-left-small" viewBox="0 0 17 32">
<path fill="#fff" style="fill: var(--color1, #fff)" stroke-linejoin="miter" stroke-linecap="butt" stroke-miterlimit="4" stroke-width="1.4545" stroke="#000" d="M1.105 16.396c-0.052-0.050-0.095-0.11-0.124-0.177l-0.001-0.004c-0.028-0.063-0.044-0.137-0.044-0.215s0.016-0.152 0.046-0.219l-0.001 0.004c0.031-0.070 0.073-0.129 0.125-0.179l0-0 14.186-13.517c0.098-0.093 0.23-0.15 0.376-0.15 0.144 0 0.274 0.056 0.372 0.146l0.021 0.021c0.084 0.081 0.137 0.195 0.137 0.322 0 0.062-0.013 0.122-0.036 0.176l0.001-0.003c-0.025 0.057-0.059 0.106-0.102 0.147l-0 0h-0.001l-13.911 13.249 13.911 13.254c0.085 0.082 0.137 0.196 0.137 0.323 0 0.063-0.013 0.123-0.037 0.178l0.001-0.003c-0.025 0.057-0.059 0.106-0.102 0.147l-0.021 0.021c-0.097 0.090-0.228 0.146-0.371 0.146-0.146 0-0.278-0.057-0.376-0.151l0 0-14.186-13.516z"></path>
</symbol>
<symbol id="icon-slider-right-big" viewBox="0 0 18 32">
<path d="M17.653 15.035l-14.862-14.16c-0.239-0.228-0.563-0.368-0.92-0.368s-0.681 0.14-0.921 0.369l0.001-0-0.016 0.016c-0.235 0.224-0.382 0.539-0.382 0.889s0.146 0.665 0.381 0.889l0 0 13.995 13.333-13.995 13.328c-0.236 0.224-0.382 0.54-0.382 0.89s0.147 0.666 0.382 0.889l0.001 0 0.016 0.016c0.239 0.228 0.563 0.368 0.92 0.368s0.681-0.14 0.921-0.369l-0.001 0 14.862-14.16c0.255-0.243 0.413-0.586 0.413-0.965s-0.158-0.722-0.413-0.965l-0-0z"></path>
</symbol>
</defs>
</svg>
