<svg aria-hidden="true" style="position: absolute; width: 0; height: 0; overflow: hidden;" version="1.1" xmlns="http://www.w3.org/2000/svg" xmlns:xlink="http://www.w3.org/1999/xlink">
<defs>
<symbol id="icon-slider-left-big" viewBox="0 0 37 32">
<path fill="#fefefe" style="fill: var(--color1, #fefefe)" d="M2.667 21.333v-16c0-2.946 2.388-5.333 5.333-5.333h21.333c2.946 0 5.333 2.388 5.333 5.333v16c0 2.946-2.388 5.333-5.333 5.333h-21.333c-2.946 0-5.333-2.388-5.333-5.333z"></path>
<path fill="#2c2c2c" style="fill: var(--color2, #2c2c2c)" d="M11.633 13.937l9.289 8.85c0.149 0.142 0.352 0.23 0.575 0.23s0.426-0.088 0.575-0.23l0.010-0.010c0.147-0.14 0.238-0.337 0.238-0.556s-0.091-0.416-0.238-0.555l-0-0-8.747-8.333 8.747-8.33c0.147-0.14 0.239-0.337 0.239-0.556s-0.092-0.416-0.238-0.556l-0.010-0.010c-0.149-0.142-0.352-0.23-0.575-0.23s-0.426 0.088-0.575 0.23l0-0-9.289 8.85c-0.159 0.152-0.258 0.366-0.258 0.603s0.099 0.451 0.258 0.603l0 0z"></path>
</symbol>
<symbol id="icon-slider-left-small" viewBox="0 0 37 32">
<path fill="#fff" style="fill: var(--color3, #fff)" d="M3.556 21.333v-17.778c0-1.964 1.592-3.556 3.556-3.556h23.111c1.964 0 3.556 1.592 3.556 3.556v17.778c0 1.964-1.592 3.556-3.556 3.556h-23.111c-1.964 0-3.556-1.592-3.556-3.556z"></path>
<path fill="#fff" style="fill: var(--color3, #fff); stroke: var(--color2, #2c2c2c)" stroke="#2c2c2c" stroke-linejoin="miter" stroke-linecap="butt" stroke-miterlimit="4" stroke-width="0.8889" d="M12.231 12.686c-0.032-0.031-0.058-0.067-0.076-0.108l-0.001-0.002c-0.017-0.039-0.027-0.084-0.027-0.132s0.010-0.093 0.028-0.134l-0.001 0.002c0.019-0.043 0.045-0.079 0.076-0.109l0-0 8.669-8.26c0.060-0.057 0.141-0.092 0.23-0.092 0.088 0 0.168 0.034 0.227 0.089l0.013 0.013c0.052 0.050 0.084 0.119 0.084 0.196 0 0.038-0.008 0.074-0.022 0.107l0.001-0.002c-0.015 0.035-0.036 0.065-0.062 0.090l-0 0h-0.001l-8.501 8.097 8.501 8.1c0.052 0.050 0.084 0.12 0.084 0.197 0 0.039-0.008 0.075-0.022 0.109l0.001-0.002c-0.015 0.035-0.036 0.065-0.062 0.090l-0.013 0.013c-0.059 0.055-0.139 0.089-0.227 0.089-0.089 0-0.17-0.035-0.23-0.092l0 0-8.669-8.26z"></path>
</symbol>
<symbol id="icon-slider-right-big" viewBox="0 0 37 32">
<path fill="#fefefe" style="fill: var(--color1, #fefefe)" d="M34.667 5.333v16c0 2.946-2.388 5.333-5.333 5.333h-21.333c-2.946 0-5.333-2.388-5.333-5.333v-16c0-2.946 2.388-5.333 5.333-5.333h21.333c2.946 0 5.333 2.388 5.333 5.333z"></path>
<path fill="#2c2c2c" style="fill: var(--color2, #2c2c2c)" d="M25.7 12.73l-9.289-8.85c-0.149-0.142-0.352-0.23-0.575-0.23s-0.426 0.088-0.575 0.23l-0.010 0.010c-0.147 0.14-0.238 0.337-0.238 0.556s0.091 0.416 0.238 0.555l0 0 8.747 8.333-8.747 8.331c-0.147 0.14-0.238 0.337-0.238 0.556s0.091 0.416 0.238 0.555l0.010 0.010c0.149 0.142 0.352 0.23 0.575 0.23s0.426-0.088 0.575-0.23l-0 0 9.289-8.85c0.159-0.152 0.258-0.366 0.258-0.603s-0.099-0.451-0.258-0.603l-0-0z"></path>
</symbol>
<symbol id="icon-slider-right-small" viewBox="0 0 37 32">
<path fill="#fff" style="fill: var(--color3, #fff)" d="M33.778 3.556v17.778c0 1.964-1.592 3.556-3.556 3.556h-23.111c-1.964 0-3.556-1.592-3.556-3.556v-17.778c0-1.964 1.592-3.556 3.556-3.556h23.111c1.964 0 3.556 1.592 3.556 3.556z"></path>
<path fill="#fff" style="fill: var(--color3, #fff); stroke: var(--color2, #2c2c2c)" stroke="#2c2c2c" stroke-linejoin="miter" stroke-linecap="butt" stroke-miterlimit="4" stroke-width="0.8889" d="M25.102 12.203c0.032 0.031 0.058 0.067 0.076 0.108l0.001 0.002c0.017 0.039 0.027 0.084 0.027 0.132s-0.010 0.093-0.028 0.134l0.001-0.002c-0.019 0.043-0.045 0.079-0.076 0.109l-0 0-8.669 8.26c-0.060 0.057-0.141 0.092-0.23 0.092-0.088 0-0.168-0.034-0.227-0.089l-0.013-0.013c-0.051-0.050-0.083-0.119-0.083-0.196s0.032-0.146 0.083-0.196l0-0h0.001l8.501-8.097-8.501-8.1c-0.052-0.050-0.084-0.12-0.084-0.197 0-0.039 0.008-0.075 0.022-0.109l-0.001 0.002c0.015-0.035 0.036-0.065 0.062-0.090l0.013-0.013c0.059-0.055 0.139-0.089 0.227-0.089 0.089 0 0.17 0.035 0.23 0.092l-0-0 8.669 8.26z"></path>
</symbol>
</defs>
</svg>
